<?xml version="1.0" encoding="UTF-8" standalone="no"?>
<!-- Created with Inkscape (http://www.inkscape.org/) -->

<svg
   width="210mm"
   height="297mm"
   viewBox="0 0 210 297"
   version="1.1"
   id="svg5"
   xml:space="preserve"
   sodipodi:docname="avatar.svg"
   inkscape:version="1.2 (dc2aedaf03, 2022-05-15)"
   inkscape:export-filename="..\..\..\..\laragon\www\nette\nette-petrik\web_nette_petercubon_sk\www\img\profile\avatar.png"
   inkscape:export-xdpi="96"
   inkscape:export-ydpi="96"
   xmlns:inkscape="http://www.inkscape.org/namespaces/inkscape"
   xmlns:sodipodi="http://sodipodi.sourceforge.net/DTD/sodipodi-0.dtd"
   xmlns:xlink="http://www.w3.org/1999/xlink"
   xmlns="http://www.w3.org/2000/svg"
   xmlns:svg="http://www.w3.org/2000/svg"><sodipodi:namedview
     id="namedview7"
     pagecolor="#ffffff"
     bordercolor="#666666"
     borderopacity="1.0"
     inkscape:showpageshadow="2"
     inkscape:pageopacity="0.0"
     inkscape:pagecheckerboard="0"
     inkscape:deskcolor="#d1d1d1"
     inkscape:document-units="mm"
     showgrid="false"
     inkscape:zoom="0.67519155"
     inkscape:cx="682.76921"
     inkscape:cy="571.68962"
     inkscape:window-width="1920"
     inkscape:window-height="974"
     inkscape:window-x="-11"
     inkscape:window-y="-11"
     inkscape:window-maximized="1"
     inkscape:current-layer="layer1" /><defs
     id="defs2"><linearGradient
       inkscape:collect="always"
       id="linearGradient7289"><stop
         style="stop-color:#333333;stop-opacity:1;"
         offset="0"
         id="stop7285" /><stop
         style="stop-color:#333333;stop-opacity:0;"
         offset="0.69211823"
         id="stop7287" /></linearGradient><linearGradient
       inkscape:collect="always"
       id="linearGradient6402"><stop
         style="stop-color:#333333;stop-opacity:0.58959538"
         offset="0.27339903"
         id="stop6398" /><stop
         style="stop-color:#333333;stop-opacity:0;"
         offset="1"
         id="stop6400" /></linearGradient><clipPath
       clipPathUnits="userSpaceOnUse"
       id="clipPath1637"><rect
         style="opacity:0.546512;fill:#4d4d4d;stroke-width:0.15;stroke-linecap:round;stroke-linejoin:round"
         id="rect1639"
         width="174.3161"
         height="209.69391"
         x="18.653753"
         y="30.231943" /></clipPath><linearGradient
       inkscape:collect="always"
       xlink:href="#linearGradient6402"
       id="linearGradient6404"
       x1="78.640198"
       y1="140.5714"
       x2="78.604332"
       y2="215.38025"
       gradientUnits="userSpaceOnUse"
       gradientTransform="matrix(1.1729084,0,0,1.1729084,-17.449817,-40.164492)" /><filter
       inkscape:collect="always"
       style="color-interpolation-filters:sRGB"
       id="filter7275"
       x="-0.059037578"
       y="-0.012255905"
       width="1.1180752"
       height="1.0245118"><feGaussianBlur
         inkscape:collect="always"
         stdDeviation="0.26778978"
         id="feGaussianBlur7277" /></filter><filter
       inkscape:collect="always"
       style="color-interpolation-filters:sRGB"
       id="filter7281"
       x="-0.21539698"
       y="-0.26326288"
       width="1.430794"
       height="1.5265258"><feGaussianBlur
         inkscape:collect="always"
         stdDeviation="1.4381349"
         id="feGaussianBlur7283" /></filter><linearGradient
       inkscape:collect="always"
       xlink:href="#linearGradient7289"
       id="linearGradient7291"
       x1="104.00614"
       y1="194.74297"
       x2="104.16834"
       y2="228.86745"
       gradientUnits="userSpaceOnUse" /><filter
       inkscape:collect="always"
       style="color-interpolation-filters:sRGB"
       id="filter7379"
       x="-0.12640117"
       y="-0.12078898"
       width="1.2528023"
       height="1.241578"><feGaussianBlur
         inkscape:collect="always"
         stdDeviation="1.5318716"
         id="feGaussianBlur7381" /></filter><filter
       inkscape:collect="always"
       style="color-interpolation-filters:sRGB"
       id="filter7477"
       x="-0.022394311"
       y="-0.01454416"
       width="1.0447886"
       height="1.0290883"><feGaussianBlur
         inkscape:collect="always"
         stdDeviation="0.37531894"
         id="feGaussianBlur7479" /></filter><filter
       inkscape:collect="always"
       style="color-interpolation-filters:sRGB"
       id="filter7579"
       x="-0.022134182"
       y="-0.014127518"
       width="1.0442684"
       height="1.028255"><feGaussianBlur
         inkscape:collect="always"
         stdDeviation="0.37181394"
         id="feGaussianBlur7581" /></filter><filter
       inkscape:collect="always"
       style="color-interpolation-filters:sRGB"
       id="filter7589"
       x="-0.16532995"
       y="-0.047780281"
       width="1.3306599"
       height="1.0955606"><feGaussianBlur
         inkscape:collect="always"
         stdDeviation="0.38807763"
         id="feGaussianBlur7591" /></filter><filter
       inkscape:collect="always"
       style="color-interpolation-filters:sRGB"
       id="filter8337"
       x="-0.035142592"
       y="-0.028695292"
       width="1.0702852"
       height="1.0573906"><feGaussianBlur
         inkscape:collect="always"
         stdDeviation="0.44527962"
         id="feGaussianBlur8339" /></filter><filter
       inkscape:collect="always"
       style="color-interpolation-filters:sRGB"
       id="filter1061"
       x="-0.12769853"
       y="-0.064637544"
       width="1.2553971"
       height="1.1292751"><feGaussianBlur
         inkscape:collect="always"
         stdDeviation="1.3174652"
         id="feGaussianBlur1063" /></filter><filter
       inkscape:collect="always"
       style="color-interpolation-filters:sRGB"
       id="filter1067"
       x="-0.030606547"
       y="-0.060044263"
       width="1.0612131"
       height="1.1200885"><feGaussianBlur
         inkscape:collect="always"
         stdDeviation="0.50274692"
         id="feGaussianBlur1069" /></filter><filter
       inkscape:collect="always"
       style="color-interpolation-filters:sRGB"
       id="filter1115"
       x="-0.016048084"
       y="-0.021138074"
       width="1.0321028"
       height="1.0422796"><feGaussianBlur
         inkscape:collect="always"
         stdDeviation="0.51939361"
         id="feGaussianBlur1117" /></filter></defs><g
     inkscape:label="Vrstva 1"
     inkscape:groupmode="layer"
     id="layer1"><path
       style="fill:#ffffff;stroke:none;stroke-width:0.310332px;stroke-linecap:butt;stroke-linejoin:miter;stroke-opacity:1"
       d="m 65.2432,174.70511 79.22676,-0.30817 -39.43291,77.19057 z"
       id="path8395" /><path
       style="fill:#0088aa;stroke:none;stroke-width:0.310332px;stroke-linecap:butt;stroke-linejoin:miter;stroke-opacity:1"
       d="m 55.719389,178.68245 -34.354843,12.7179 C 7.5659546,197.70964 7.8546331,202.3615 6.4994712,211.22045 l -3.4685177,40.46604 82.2116575,-0.17753 z"
       id="path5596"
       sodipodi:nodetypes="cccccc" /><path
       style="opacity:0.65896;fill:#deaa87;stroke:none;stroke-width:0.310332px;stroke-linecap:butt;stroke-linejoin:miter;stroke-opacity:1"
       d="m 64.454456,102.99544 3.136554,26.32287 c -1.747533,-0.95456 -6.16384,-4.15155 -7.202829,-8.19774 -0.791101,-10.56667 0.997159,-16.29054 4.066275,-18.12513 z"
       id="path3753"
       sodipodi:nodetypes="cccc" /><path
       style="opacity:0.65896;fill:#deaa87;stroke:none;stroke-width:0.312867px;stroke-linecap:round;stroke-linejoin:round;stroke-opacity:1"
       d="m 145.53658,103.6227 -3.51322,26.29367 c 1.79293,-0.91891 6.34093,-4.02721 7.48232,-8.05845 1.03136,-10.56873 -0.89639,-16.33172 -3.9691,-18.23522 z"
       id="path3757"
       sodipodi:nodetypes="cccc" /><path
       style="opacity:0.791908;fill:#ffb380;stroke:none;stroke-width:0.310332px;stroke-linecap:butt;stroke-linejoin:miter;stroke-opacity:1"
       d="m 74.660397,163.93815 0.821385,6.57283 28.840838,22.98111 31.1298,-23.34734 -0.2017,-6.42243 c -4.65993,-3.57852 -2.31775,-12.13525 -2.64633,-13.92305 l -55.231368,1.36429 c 0.03777,3.73413 1.446453,10.74831 -2.712625,12.77459 z"
       id="path6350"
       sodipodi:nodetypes="cccccccc" /><path
       style="fill:#0088aa;stroke:none;stroke-width:0.310332px;stroke-linecap:butt;stroke-linejoin:miter;stroke-opacity:1"
       d="m 154.28062,178.64871 34.35484,12.71791 c 13.79858,6.30928 13.50991,10.96114 14.86507,19.8201 l 3.46852,40.46604 -82.21166,-0.17753 z"
       id="path5598"
       sodipodi:nodetypes="cccccc" /><path
       id="path3816"
       style="fill:#afdde9;stroke:#afdde9;stroke-width:0.310332px;stroke-linecap:butt;stroke-linejoin:round;stroke-opacity:1"
       d="m 105.04309,188.19467 -0.0121,63.15742 13.97463,-24.2053 -7.80981,-22.22208 3.9634,-3.9634 z m -0.0903,0.0291 -10.122758,12.76786 3.9634,3.9634 -7.809821,22.22207 13.975239,24.2053 z"
       sodipodi:nodetypes="cccccccccccc" /><path
       style="opacity:0.445087;fill:url(#linearGradient6404);fill-opacity:1;stroke:none;stroke-width:0.310332px;stroke-linecap:butt;stroke-linejoin:miter;stroke-opacity:1"
       d="m 75.338108,170.06605 29.547112,17.97273 0.2255,-0.001 30.19803,-18.33778 -0.0561,-5.96578 c -4.65993,-3.57852 -2.46336,-12.59191 -2.79193,-14.3797 l -55.231377,1.36429 c 0.03777,3.73413 1.682022,11.15469 -2.477056,13.18097 0.0016,-0.008 0.538536,5.78799 0.585816,6.16632 z"
       id="path6373"
       sodipodi:nodetypes="ccccccccc" /><path
       style="fill:#f2f2f2;stroke:none;stroke-width:0.310332px;stroke-linecap:round;stroke-linejoin:round;stroke-opacity:1"
       d="m 135.26429,163.74837 -30.15556,24.28799 15.07872,19.88158 24.64772,-33.34329 z"
       id="path5592"
       sodipodi:nodetypes="ccccc" /><path
       style="fill:#ffccaa;stroke:none;stroke-width:0.310332px;stroke-linecap:round;stroke-linejoin:round;stroke-opacity:1"
       d="m 72.253626,74.393494 c -5.367754,19.353869 -9.829363,41.158636 -5.621673,61.000086 7.99193,15.20519 14.443701,36.06316 29.093377,38.22183 6.37646,0.70319 12.86229,0.40444 16.9007,-0.45678 16.12336,-3.70202 24.03731,-25.898 28.47235,-37.15108 l 3.95872,-25.57944 -8.67874,-33.649125 z"
       id="path3759"
       sodipodi:nodetypes="cccccccc" /><path
       style="fill:#f2f2f2;stroke:none;stroke-width:0.310332px;stroke-linecap:round;stroke-linejoin:round;stroke-opacity:1"
       d="M 74.598195,163.78884 104.89572,188.04793 89.820628,207.93194 65.172906,174.58866 Z"
       id="path3761"
       sodipodi:nodetypes="ccccc" /><path
       style="fill:#000000;stroke:#000000;stroke-width:0.310332px;stroke-linecap:round;stroke-linejoin:round;stroke-opacity:1"
       d="m 64.95866,110.16634 c 0.256608,-13.343599 -7.215035,-35.469479 0.475859,-40.759278 -0.382322,-8.323237 2.839694,-8.536715 5.388767,-10.264314 11.180596,-12.566306 49.293374,-27.328557 74.672884,4.875548 8.54557,10.40438 0.14189,29.962452 -0.45472,46.873154 L 136.5149,77.361903 c -16.08675,8.549552 -34.54614,12.256365 -61.329281,-1.026431 z"
       id="path3655"
       sodipodi:nodetypes="cccccccc" /><path
       style="opacity:0.15896;fill:#37abc8;stroke:none;stroke-width:0.264583px;stroke-linecap:butt;stroke-linejoin:miter;stroke-opacity:1;filter:url(#filter7275)"
       d="m 104.48105,194.53566 7.30172,11.37299 -2.61091,3.05345 6.1954,17.61264 -10.44368,20.40058 z"
       id="path7273"
       transform="matrix(1.1729084,0,0,1.1729084,-17.449817,-40.164492)" /><path
       style="opacity:0.679191;mix-blend-mode:normal;fill:url(#linearGradient7291);fill-opacity:1;stroke:none;stroke-width:0.264583px;stroke-linecap:butt;stroke-linejoin:miter;stroke-opacity:1;filter:url(#filter7281)"
       d="m 99.123755,209.37162 5.164765,4.23776 5.36341,-4.30398 2.71481,7.74715 -7.48229,5.36341 -8.541722,-5.49584 z"
       id="path7279"
       transform="matrix(0.96120937,0,0,1.0449778,4.6419784,-13.552165)" /><g
       id="g7603"
       transform="matrix(1.1729084,0,0,1.1729084,-17.449817,-40.164492)"><path
         style="opacity:0.453757;fill:#000000;stroke:none;stroke-width:0.299515px;stroke-linecap:butt;stroke-linejoin:miter;stroke-opacity:1;filter:url(#filter7589)"
         d="m 162.76116,248.61775 4.65279,-19.48136 0.98071,19.49311 z"
         id="path7587"
         sodipodi:nodetypes="cccc" /><path
         style="fill:#006680;stroke:none;stroke-width:0.264583px;stroke-linecap:butt;stroke-linejoin:miter;stroke-opacity:1"
         d="m 163.68924,248.74149 3.63077,-19.48136 0.76529,19.49311 z"
         id="path7327"
         sodipodi:nodetypes="cccc" /></g><path
       style="opacity:0.156069;fill:#999999;stroke:none;stroke-width:0.249641px;stroke-linecap:round;stroke-linejoin:round;stroke-opacity:1;filter:url(#filter7379)"
       d="m 129.54733,174.54911 -24.25171,19.76061 11.03505,10.6767 18.05085,-25.74205 z"
       id="path7373"
       sodipodi:nodetypes="ccccc"
       transform="matrix(1.1729084,0,0,1.1935019,-17.449817,-43.714489)" /><path
       style="opacity:0.5;mix-blend-mode:normal;fill:#000000;stroke:none;stroke-width:0.26235px;stroke-linecap:butt;stroke-linejoin:miter;stroke-opacity:1;filter:url(#filter7477)"
       d="m 137.89762,186.43649 9.1858,0.5293 -0.34555,16.72835 -4.95906,1.67283 2.95977,5.55731 -22.0101,37.09233 -15.86802,0.35302 z"
       id="path7475"
       sodipodi:nodetypes="cccccccc"
       transform="matrix(1.1729084,0,0,1.1729084,-17.449817,-40.164492)" /><path
       style="fill:#006680;stroke:none;stroke-width:0.310332px;stroke-linecap:butt;stroke-linejoin:miter;stroke-opacity:1"
       d="m 144.51814,174.45743 9.79668,4.17266 -0.36284,20.13764 -6.53112,1.99562 3.99124,6.89396 -26.61792,43.78742 -19.66079,-0.0558 z"
       id="path5600"
       sodipodi:nodetypes="cccccccc" /><path
       style="opacity:0.5;mix-blend-mode:normal;fill:#000000;stroke:none;stroke-width:0.26235px;stroke-linecap:butt;stroke-linejoin:miter;stroke-opacity:1;filter:url(#filter7579)"
       d="m 137.98044,187.05765 10.31079,1.9976 -0.61203,17.23917 -4.81876,1.94052 2.86746,5.61825 -22.10786,36.36867 -15.64444,-3.15964 z"
       id="path7481"
       sodipodi:nodetypes="cccccccc"
       transform="matrix(-1.1729084,0,0,1.1729084,228.59243,-42.519267)" /><path
       style="fill:#006680;stroke:none;stroke-width:0.310332px;stroke-linecap:butt;stroke-linejoin:miter;stroke-opacity:1"
       d="m 65.250681,174.63689 -9.504258,4.07517 0.460315,20.23512 6.531123,1.99562 -3.991241,6.89396 26.617919,43.78743 19.660801,-0.0558 z"
       id="path5594"
       sodipodi:nodetypes="cccccccc" /><g
       id="g7599"
       transform="matrix(1.1729084,0,0,1.1729084,-46.000662,-55.216854)"><path
         style="opacity:0.453757;fill:#000000;stroke:none;stroke-width:0.299515px;stroke-linecap:butt;stroke-linejoin:miter;stroke-opacity:1;filter:url(#filter7589)"
         d="m 162.76116,248.61775 4.65279,-19.48136 0.98071,19.49311 z"
         id="path7593"
         sodipodi:nodetypes="cccc"
         transform="matrix(-1,0,0,1,233.21857,12.84423)" /><path
         style="fill:#006680;stroke:none;stroke-width:0.264583px;stroke-linecap:butt;stroke-linejoin:miter;stroke-opacity:1"
         d="m 69.529327,261.58572 -3.63077,-19.48136 -0.76529,19.49311 z"
         id="path7595"
         sodipodi:nodetypes="cccc" /></g><path
       style="opacity:0.104046;fill:#000000;stroke:none;stroke-width:0.264583px;stroke-linecap:butt;stroke-linejoin:miter;stroke-opacity:1;filter:url(#filter8337)"
       d="m 105.08897,182.49125 c 14.76172,-4.48082 26.06117,-25.35198 30.40957,-36.91507 -6.30138,24.0147 -16.55754,39.73819 -30.40957,36.91507 z"
       id="path7605"
       sodipodi:nodetypes="ccc"
       transform="matrix(1.1729084,0,0,1.1729084,-17.449817,-40.164492)" /><path
       style="fill:#000000;stroke:#000000;stroke-width:0.310332px;stroke-linecap:round;stroke-linejoin:round;stroke-opacity:1"
       d="m 65.085485,111.81507 c 0.256607,-13.343607 -7.215036,-35.46949 0.475858,-40.759288 -0.382321,-8.323237 2.839694,-8.536716 5.388767,-10.264315 11.180597,-12.566306 49.29337,-27.328557 74.67288,4.875548 8.54558,10.40438 0.1419,29.962456 -0.45471,46.873155 L 136.64173,79.010625 C 120.55497,87.560178 102.09559,91.26699 75.312444,77.98419 Z"
       id="path1071"
       sodipodi:nodetypes="cccccccc" /><path
       style="opacity:0.272093;mix-blend-mode:normal;fill:#000000;stroke:#000000;stroke-width:0.310332px;stroke-linecap:round;stroke-linejoin:round;stroke-opacity:1;filter:url(#filter1115)"
       d="m 64.741567,113.89187 c 0.256607,-13.34361 -7.215036,-35.469493 0.475858,-40.759291 -0.382321,-8.323237 2.839694,-8.536716 5.388767,-10.264315 11.180597,-12.566306 49.293368,-27.328557 74.672878,4.875548 8.54558,10.40438 0.1419,29.962456 -0.45471,46.873158 l -8.52655,-33.529548 c -16.08676,8.549553 -34.54614,12.256365 -61.329284,-1.026435 z"
       id="path1104"
       sodipodi:nodetypes="cccccccc"
       transform="matrix(0.99314229,0,0,1.000016,0.92607464,-1.0596416)" /><path
       style="fill:#ffffff;stroke:none;stroke-width:0.264583px;stroke-linecap:butt;stroke-linejoin:miter;stroke-opacity:1;opacity:0.16744186;filter:url(#filter1061)"
       d="M 65.962119,99.369291 63.653084,81.256788 c -0.567624,-7.25506 0.821524,-10.690418 4.16831,-10.940743 -2.240836,-7.337394 1.640643,-7.140676 3.935849,-8.955932 L 88.290383,50.451646 C 72.74266,62.047884 66.230588,78.894568 65.962119,99.369291 Z"
       id="path354"
       sodipodi:nodetypes="cccccc" /><path
       style="opacity:0.0930233;mix-blend-mode:normal;fill:#ffffff;stroke:none;stroke-width:0.264583px;stroke-linecap:butt;stroke-linejoin:miter;stroke-opacity:1;filter:url(#filter1067)"
       d="M 80.598652,67.060554 C 95.657833,63.380529 115.13007,52.6761 120.02135,48.169957 l -17.07428,-1.204456 -13.820005,8.377605 z"
       id="path1065"
       sodipodi:nodetypes="ccccc" /></g></svg>
